<?xml version="1.0" standalone="no"?>
<!DOCTYPE svg PUBLIC "-//W3C//DTD SVG 20010904//EN"
 "http://www.w3.org/TR/2001/REC-SVG-20010904/DTD/svg10.dtd">
<svg version="1.0" xmlns="http://www.w3.org/2000/svg"
 width="833.000000pt" height="299.000000pt" viewBox="0 0 833.000000 299.000000"
 preserveAspectRatio="xMidYMid meet">

<g transform="translate(0.000000,299.000000) scale(0.100000,-0.100000)"
fill="#000000" stroke="none">
<path d="M517 2683 c-16 -4 -17 -17 -15 -131 l3 -127 193 -3 193 -2 -3 132 -3
133 -175 1 c-96 1 -183 0 -193 -3z"/>
<path d="M5380 2591 l-25 -7 -3 -183 c-2 -161 -4 -182 -18 -177 -9 3 -38 6
-65 6 l-49 0 0 170 0 170 -26 10 c-33 13 -314 13 -334 0 -15 -9 -15 -22 -20
-337 0 -9 -17 -13 -49 -13 -60 0 -65 -10 -55 -109 4 -40 2 -76 -3 -86 -9 -15
-15 -9 -38 39 -52 106 -125 168 -250 212 -39 14 -82 18 -195 18 -193 0 -270
-23 -358 -108 -71 -68 -107 -176 -100 -306 l3 -65 174 -3 c133 -2 176 1 183
10 4 7 8 41 8 76 0 57 3 67 29 93 17 16 40 29 54 29 33 0 84 -43 91 -78 10
-48 15 -227 7 -241 -5 -7 -69 -33 -142 -58 -196 -65 -288 -112 -335 -170 -50
-62 -58 -76 -79 -148 -9 -33 -22 -63 -28 -67 -7 -4 -94 -8 -193 -8 l-182 0 -4
-140 c-3 -121 -6 -143 -24 -166 -41 -55 -125 -52 -159 6 -18 32 -20 52 -20
255 l0 220 290 5 290 5 3 215 c4 282 -10 373 -74 475 -42 67 -67 88 -147 125
-82 39 -187 54 -312 46 -212 -14 -358 -115 -412 -284 -16 -52 -18 -100 -18
-537 l0 -480 27 -85 c48 -151 117 -225 249 -271 52 -18 87 -22 189 -23 284 -2
415 88 473 323 19 73 24 83 30 50 50 -268 88 -329 227 -365 147 -37 249 8 315
140 34 67 44 58 47 -41 l3 -88 174 -3 c115 -2 178 1 185 8 8 8 13 215 16 653
l5 642 46 3 c30 2 50 -2 57 -11 8 -9 12 -180 14 -593 l3 -579 25 -44 c18 -32
39 -52 75 -70 46 -23 60 -26 165 -25 70 1 137 8 170 17 33 9 57 12 61 6 3 -6
86 -8 200 -7 l194 3 3 659 c2 646 3 659 23 687 18 26 26 29 73 29 44 0 57 -4
77 -26 l24 -26 5 -661 5 -662 188 -3 187 -2 0 677 c0 573 -3 688 -16 743 -34
147 -120 228 -257 245 -125 16 -215 -23 -265 -113 -13 -23 -28 -42 -33 -42 -5
0 -9 90 -9 214 0 161 -3 217 -12 223 -17 10 -325 14 -358 4z m-2070 -566 c55
-28 64 -62 65 -240 l0 -160 -100 0 -100 0 -3 145 c-3 170 7 213 58 248 39 26
42 26 80 7z m2038 -601 l2 -531 -52 5 c-29 2 -59 9 -66 15 -9 7 -12 119 -10
521 l3 511 45 6 c25 3 52 6 60 5 13 -1 15 -69 18 -532z m-1010 -140 c3 -264 0
-308 -27 -343 -24 -32 -93 -32 -126 -1 -34 32 -49 136 -42 280 8 135 18 178
55 221 30 37 111 91 127 86 6 -2 11 -89 13 -243z"/>
<path d="M6723 2301 c-121 -20 -260 -116 -307 -214 -52 -108 -58 -171 -53
-615 6 -465 13 -529 73 -648 46 -92 127 -153 244 -185 60 -17 261 -17 330 0
157 39 251 130 291 283 13 52 27 168 31 263 l3 70 -190 0 -190 0 -5 -141 c-6
-161 -16 -189 -75 -200 -54 -10 -91 10 -110 60 -13 33 -15 79 -13 251 l3 210
281 3 282 2 6 23 c9 35 7 435 -4 505 -10 75 -55 175 -98 219 -39 40 -105 79
-168 98 -58 18 -257 27 -331 16z m161 -275 c55 -23 67 -71 64 -251 l-3 -150
-88 -3 c-57 -2 -94 1 -103 9 -11 9 -14 39 -13 123 1 181 18 242 80 273 29 16
23 16 63 -1z"/>
<path d="M7960 2301 c-75 -23 -127 -68 -160 -137 -12 -24 -26 -42 -31 -38 -5
3 -9 39 -9 80 0 71 -1 75 -26 84 -32 13 -324 13 -344 0 -12 -8 -14 -120 -15
-820 -1 -446 2 -815 5 -820 4 -7 75 -9 191 -8 l184 3 3 641 c2 622 3 642 22
659 20 18 169 54 227 55 42 0 45 11 41 175 l-3 130 -30 2 c-16 1 -41 -2 -55
-6z"/>
<path d="M518 2293 c-17 -4 -18 -49 -18 -768 0 -420 -3 -771 -6 -780 -4 -8
-22 -22 -40 -30 l-34 -14 0 -115 c0 -139 -1 -137 134 -139 154 -2 231 35 282
134 52 104 54 141 52 960 l-3 754 -175 1 c-96 1 -183 -1 -192 -3z"/>
<path d="M1316 2291 c-6 -8 5 -125 23 -266 5 -38 14 -112 20 -164 15 -124 40
-327 51 -423 6 -43 14 -113 20 -155 5 -43 18 -157 29 -253 22 -188 40 -332 47
-366 3 -19 13 -22 109 -28 58 -4 152 -4 209 0 l104 7 7 31 c3 17 10 72 15 121
5 50 14 128 20 175 11 86 33 288 50 460 6 57 16 100 24 109 13 12 15 11 20
-10 12 -62 35 -233 56 -424 6 -49 15 -121 20 -160 5 -38 14 -112 20 -163 16
-149 9 -139 103 -146 45 -4 127 -4 182 -1 112 6 125 14 125 75 0 20 4 61 9 91
5 30 15 97 21 149 6 52 17 145 25 205 8 61 20 148 25 195 6 47 15 117 20 155
5 39 14 106 20 150 17 139 59 457 71 537 6 43 9 84 5 93 -4 12 -30 15 -153 15
-163 0 -190 -4 -198 -29 -6 -21 -32 -268 -54 -526 -21 -232 -35 -325 -50 -325
-11 0 -20 44 -31 145 -5 44 -12 103 -15 130 -3 28 -10 82 -15 120 -5 39 -16
131 -25 205 -25 216 -35 268 -52 274 -30 12 -289 6 -305 -6 -10 -9 -18 -36
-21 -78 -4 -36 -11 -105 -16 -155 -14 -129 -41 -395 -51 -501 -13 -146 -43
-177 -53 -57 -4 38 -11 102 -16 143 -36 285 -43 344 -52 420 -6 47 -14 116
-18 153 -4 42 -12 72 -21 77 -19 12 -297 13 -304 1z"/>
<path d="M920 796 l0 -155 57 -7 c60 -7 297 1 314 11 10 7 13 264 3 289 -5 14
-32 16 -190 16 l-184 0 0 -154z"/>
</g>
</svg>
